<?xml version="1.0" encoding="utf-8"?>
<!-- Generator: Adobe Illustrator 21.0.2, SVG Export Plug-In . SVG Version: 6.00 Build 0)  -->
<svg version="1.1" id="레이어_1" xmlns="http://www.w3.org/2000/svg" xmlns:xlink="http://www.w3.org/1999/xlink" x="0px"
	 y="0px" viewBox="0 0 64 80" style="enable-background:new 0 0 64 80;" xml:space="preserve">
<style type="text/css">
	.st0{fill:#FFFFFF;}
	.st1{fill:none;stroke:#FFFFFF;stroke-width:2;stroke-miterlimit:10;}
</style>
<rect x="39.1" y="49.1" class="st0" width="4.6" height="1.5"/>
<rect x="14.1" y="34.6" class="st0" width="3.8" height="1.5"/>
<rect x="14.8" y="38.4" class="st0" width="3.8" height="1.5"/>
<rect x="30" y="33.8" class="st0" width="1.5" height="3.1"/>
<rect x="33" y="39.1" class="st0" width="1.5" height="3.1"/>
<path class="st0" d="M24.7,37.8l1.5-0.5c-0.2-0.6-0.5-1.9,0-3.4c0.2-0.6,0.8-1.8,2-2.7l-0.8-1.2c-1.6,1.1-2.3,2.7-2.6,3.4
	C24,35.4,24.4,37.1,24.7,37.8z"/>
<path class="st0" d="M53,29.1c0.4-0.7,0.6-1.4,0.6-2.1c0-2.3-2-4.2-4.6-4.5c0,0,0,0,0-0.1c0-2.5-2.4-4.6-5.3-4.6
	c-3,0-5.3,2.1-5.3,4.6c0,0,0,0,0,0.1c-2.2,0.3-4,1.8-4.5,3.7c-1.1-0.9-2.5-1.5-3.9-1.5c-2.6,0-5,1.8-6.6,4.6H20l3.7-4.9l-1.2-0.9
	l-3.2,4.3v-7.6h-1.5v7.6l-3.2-4.3l-1.2,0.9l3.7,4.9h-1.5c-1.7,0-3.3,0.8-4.3,2.1c-1,1.4-1.3,3.1-0.8,4.7l2.3,7.6h-1.8
	c-0.3,0-0.5,0.2-0.7,0.4s-0.2,0.5,0,0.8l12.2,18.3c0.2,0.2,0.4,0.3,0.6,0.3h20.6c0.2,0,0.5-0.2,0.6-0.4l4.3-6.9l3.8-6.1l3.4-5.3
	c0.2-0.2,0.2-0.5,0-0.8c0-0.2-0.2-0.3-0.5-0.3h-2.7c0.8-0.8,1.1-1.9,1.1-3.1c0-0.8-0.2-1.5-0.5-2.1c1.7-0.9,2.8-2.7,2.8-4.7
	S54.8,30,53,29.1z M30,26.2c1.5,0,2.9,0.8,4.1,2.1c0,0,0,0.1,0.1,0.1c1.4,1.5,2.4,3.7,3,6.1c0,0.1,0,0.1,0,0.2
	c0.1,0.4,0.2,0.8,0.2,1.2c0,0.2,0,0.2,0.1,0.4c0.1,0.4,0.1,0.8,0.2,1.1c0,0.2,0,0.2,0,0.4c0,0.5,0.1,1,0.1,1.5
	c0,1.6-0.2,3.1-0.5,4.6h-1.1h-8.4v-2.3h-1.5v2.3h-3.3c0-0.2-0.1-0.2-0.1-0.4s-0.1-0.3-0.1-0.5c-0.1-0.2-0.1-0.5-0.1-0.8
	c0-0.2-0.1-0.3-0.1-0.5c0-0.3-0.1-0.5-0.1-0.8c0-0.2,0-0.3,0-0.4c0-0.4,0-0.8,0-1.2c0-0.5,0-0.8,0-1.2c0-0.3,0.1-0.5,0.1-0.8
	c0-0.2,0-0.2,0-0.4c0.3-2.4,0.9-4.6,1.9-6.3c0-0.1,0.1-0.1,0.1-0.2C25.8,27.7,27.8,26.2,30,26.2z M11.9,35.6
	c-0.4-1.1-0.2-2.4,0.6-3.4c0.8-1,1.8-1.5,3.1-1.5h6.9c-0.2,0.5-0.4,0.9-0.5,1.5v0.1c-0.2,0.4-0.2,0.8-0.4,1.1v0.1
	c-0.1,0.4-0.2,0.8-0.3,1.3c0,0.1,0,0.2,0,0.2c-0.1,0.4-0.2,0.7-0.2,1.1c0,0.2,0,0.3-0.1,0.5c0,0.3-0.1,0.6-0.1,0.9
	c0,0.2,0,0.3,0,0.5c0,0.5-0.1,0.9-0.1,1.3c0,0.5,0,0.9,0.1,1.3c0,0.2,0,0.3,0,0.4c0,0.3,0.1,0.6,0.1,0.9c0,0.2,0,0.3,0.1,0.5
	c0,0.3,0.1,0.5,0.2,0.8c0,0.2,0.1,0.3,0.1,0.5c0,0.1,0,0.2,0.1,0.2h-7.2L11.9,35.6z M51.4,49.1H46v1.5h4.4l-2.9,4.6H33v1.5h13.6
	L43.2,62H23.5L12.3,45.3h1.4h8.5h13.8c0.2,0,0.3,0,0.7,0c0.3,0,0.8,0,1.3,0h11h4.7L51.4,49.1z M51.7,37.5c-0.2,0.1-0.5,0.3-0.5,0.5
	c-0.1,0.2,0,0.5,0.2,0.7c0.4,0.4,0.8,1.1,0.8,2c0,1.7-1.4,3.1-3.1,3.1h-4.6V41l2.8-2.8l-1.1-1.1l-1.8,1.8v-3.2l2.8-2.8l-1.1-1.1
	l-1.8,1.8v-3.2l2.8-2.8l-1.1-1.1l-1.8,1.8v-3.5h-1.5v3.5l-1.8-1.8l-1.1,1.1l2.8,2.8v3.2l-1.8-1.8l-1.1,1.1l2.8,2.8v3.2l-1.8-1.8
	l-1.1,1.1l2.8,2.8v2.7h-4.3c0-0.1,0-0.2,0.1-0.2c0-0.2,0.1-0.3,0.1-0.5c0.1-0.3,0.1-0.5,0.2-0.8c0-0.2,0.1-0.3,0.1-0.5
	c0-0.3,0.1-0.6,0.1-0.9c0-0.2,0-0.3,0-0.4c0-0.5,0.1-0.8,0.1-1.3c0-0.5,0-1.1-0.1-1.6c0-0.2,0-0.4-0.1-0.5c0-0.4-0.1-0.7-0.2-1
	c0-0.2-0.1-0.5-0.1-0.7c-0.1-0.2-0.1-0.5-0.2-0.8c-0.1-0.3-0.2-0.5-0.2-0.8c-0.1-0.2-0.1-0.3-0.2-0.5c-0.6-2.3-1.6-4.3-3-5.8v-0.1
	c0-0.2-0.1-0.2-0.1-0.4c0-1.7,1.7-3.1,3.8-3.1h0.1c0.2,0,0.5-0.1,0.6-0.3c0.2-0.2,0.2-0.5,0.2-0.7c-0.1-0.2-0.1-0.3-0.1-0.5
	c0-1.7,1.7-3.1,3.8-3.1c2.1,0,3.8,1.4,3.8,3.1c0,0.2,0,0.4-0.1,0.6c-0.1,0.2,0,0.5,0.2,0.7c0.2,0.2,0.4,0.3,0.6,0.3h0.1
	c2.1,0,3.8,1.4,3.8,3.1c0,0.7-0.3,1.4-0.8,1.9c-0.2,0.2-0.3,0.5-0.2,0.8s0.3,0.5,0.5,0.5c1.7,0.5,2.8,2,2.8,3.7
	C54.4,35.5,53.3,36.9,51.7,37.5z"/>
<circle class="st1" cx="32.7" cy="40.1" r="31.1"/>
</svg>
